<?xml version="1.0" encoding="UTF-8"?>
<!DOCTYPE svg PUBLIC "-//W3C//DTD SVG 1.1//EN" "http://www.w3.org/Graphics/SVG/1.1/DTD/svg11.dtd">
<!-- Creator: CorelDRAW 2019 (64-Bit) -->
<svg xmlns="http://www.w3.org/2000/svg" xml:space="preserve" width="190.775mm" height="110.434mm" version="1.1" style="shape-rendering:geometricPrecision; text-rendering:geometricPrecision; image-rendering:optimizeQuality; fill-rule:evenodd; clip-rule:evenodd"
viewBox="0 0 187.1643 108.3441"
 xmlns:xlink="http://www.w3.org/1999/xlink"
 xmlns:xodm="http://www.corel.com/coreldraw/odm/2003">
 <defs>
  <style type="text/css">
   <![CDATA[
    .str0 {stroke:#F2BD00;stroke-width:0.0748;stroke-miterlimit:22.9256}
    .fil1 {fill:#F2BD00}
    .fil0 {fill:#100B08}
   ]]>
  </style>
 </defs>
 <g id="Layer_x0020_1">
  <metadata id="CorelCorpID_0Corel-Layer"/>
  <g id="_903444464">
   <path class="fil0" d="M93.5821 108.3441c51.684,0 93.5821,-24.2537 93.5821,-54.1721 0,-29.9184 -41.8981,-54.172 -93.5821,-54.172 -51.6839,0 -93.5821,24.2537 -93.5821,54.172 0,29.9185 41.8982,54.1721 93.5821,54.1721z"/>
   <path class="fil1 str0" d="M93.582 103.0618c48.6606,0 88.1079,-21.8929 88.1079,-48.8992 0,-27.0061 -39.4472,-48.899 -88.1079,-48.899 -48.6606,0 -88.1079,21.8929 -88.1079,48.899 0,27.0063 39.4472,48.8992 88.1079,48.8992z"/>
   <path class="fil0" d="M60.4363 14.6262c-6.3146,8.2913 -8.158,16.1143 -1.4266,23.0389 4.1793,3.5474 9.131,4.9705 15.2981,3.0514 5.5304,-1.94 8.6055,-6.7561 9.7876,-13.7897 0.6707,-5.2067 0.7145,-10.492 0.8633,-15.764l4.8414 8.86c2.3485,-0.3551 4.8433,-0.3713 7.4868,-0.0434l4.816 -8.7933c0.1756,5.4578 0.252,10.9322 0.917,16.3084 1.3573,6.925 4.6304,11.7848 10.7704,13.554 3.2672,1.229 10.886,0.4106 14.4595,-3.5173 6.5247,-6.6171 4.4429,-15.2397 -1.6014,-22.7578 13.3257,3.1083 25.9841,8.4096 36.0795,15.9904 12.1742,9.8877 17.1528,22.6981 9.2709,36.3205 -4.2848,6.8447 -10.4736,13.7852 -27.1547,21.2529 2.2789,-3.8375 3.8909,-7.5638 4.3063,-11.0906 0.6816,-5.7963 -2.4147,-10.4988 -9.8008,-9.434 -5.2711,0.7599 -10.9501,4.8485 -15.3096,9.1079 -2.1931,-3.5258 -4.5779,-5.8229 -7.0813,-7.3609 -3.5222,-2.216 -7.1154,-1.6197 -10.7618,1.0715 -4.9385,3.9986 -9.4565,12.2292 -12.6507,21.813 -2.5528,-7.7751 -5.7769,-13.7601 -9.4479,-18.5535 -5.4506,-6.4349 -10.5428,-7.0653 -15.3722,-3.4373 -2.2072,1.7448 -4.0711,3.9596 -5.6881,6.512 -3.3819,-3.6867 -7.5085,-6.4251 -12.2571,-8.3726 -7.9066,-3.2699 -14.4339,1.8507 -12.7125,9.2182 0.7588,4.0135 2.0189,7.651 4.2686,10.5462 -13.3727,-5.7267 -23.0043,-13.339 -28.3018,-23.1654 -5.7593,-11.7659 -2.3824,-22.1613 6.7665,-31.691 8.9346,-8.1511 22.1279,-14.4505 39.6345,-18.8746z"/>
  </g>
 </g>
</svg>
