<?xml version="1.0" encoding="utf-8"?>
<!-- Uploaded to: SVG Repo, www.svgrepo.com, Generator: SVG Repo Mixer Tools -->
<svg id="Layer_1" data-name="Layer 1" xmlns="http://www.w3.org/2000/svg" viewBox="0 0 122.13 69.89"><defs><style>.cls-1{fill:#f7dd30;}</style></defs><title>batman</title><path class="cls-1" d="M121.06,35c0,18.71-26.86,33.88-60,33.88S1.06,53.66,1.06,35s26.87-33.89,60-33.89,60,15.17,60,33.89Z"/><path d="M51.72,24.46c-14.49,5.37-21.86-8-14.49-15.74-11.75,3-30.86,11.49-30.86,25.63,0,12.83,12.49,20.09,21.49,23.22-8.68-10.74,3.25-19.16,13.7-7.41C49.69,35.73,59.28,56.44,61,59.58h0c1.71-3.14,11.31-23.85,19.44-9.42,10.45-11.75,22.38-3.33,13.7,7.41,9-3.13,21.49-10.39,21.49-23.22,0-14.14-19.11-22.63-30.86-25.63,7.37,7.74,0,21.11-14.49,15.74-1.67-2-2.75-6.11-2.75-18.24-1.94,1.26-3.33,5.71-3.45,6a12,12,0,0,0-6.15,0c-.12-.32-1.51-4.77-3.45-6,0,12.13-1.08,16.25-2.75,18.24ZM122.13,35c0,9.76-6.93,18.56-18.12,24.88-11,6.22-26.2,10.06-42.95,10.06S29.13,66.05,18.12,59.83C6.92,53.51,0,44.71,0,35S6.92,16.39,18.12,10.07C29.13,3.85,44.32,0,61.06,0S93,3.85,104,10.07C115.2,16.39,122.13,25.18,122.13,35ZM103,58c10.52-5.94,17-14.09,17-23s-6.51-17.1-17-23c-10.7-6-25.52-9.78-41.91-9.78s-31.2,3.74-41.9,9.78C8.64,17.85,2.13,26,2.13,35S8.64,52,19.16,58c10.7,6.05,25.52,9.79,41.9,9.79S92.27,64,103,58Z"/>
<title>batman</title>
<path d="M19.5 4.25c-10.77 0-19.5 5.261-19.5 11.75s8.73 11.75 19.5 11.75 19.5-5.261 19.5-11.75-8.73-11.75-19.5-11.75zM30.555 23.53c0 0.062 1.951-2.357 0.39-3.981-1.874-2.124-5.116 1.056-5.116 1.056-2.562-5.059-6.424 3.145-6.424 3.145s-3.348-7.731-6.221-3.047c0.062 0-2.383-2.793-4.819-1.481-1.749 1.749 0 4.091 0 4.091-9.119-3.186-9.712-12.492 2.952-16.286-3.576 4.481 6.59 10.649 5.84-0.344l2.155 1.89c0 0 2.171-1.796 2.171-1.921-0.25 10.993 9.369 4.544 6.121 0.484 11.429 3.308 13.381 11.21 2.951 16.394z"></path>
</svg>